<svg xmlns="http://www.w3.org/2000/svg" xmlns:xlink="http://www.w3.org/1999/xlink" viewBox="0 0 167.2 249.4">
  <g>
    <path fill="#A8894E" d="M48.193 96.157L30.32 62.112C21.89 52.01 6.839 50.624-3.294 58.914c-10.101 8.428-11.488 23.48-3.198 33.613l30.116 23.89c8.46 10.238 32.944-10.074 24.57-20.26z" />
    <g opacity=".4" transform="rotate(32 135.155 45.22)">
      <defs>
        <path id="a" opacity=".4" d="M88.4 134.5l-33.2-19.4c-12.5-4.1-26 2.7-30.2 15.1-4.1 12.5 2.7 26 15.1 30.2l38.2 4.3c12.6 4.2 22.6-26 10.1-30.2z" />
      </defs>
      <clipPath id="b">
        <use xlink:href="#a" overflow="visible" />
      </clipPath>
      <path clip-path="url(#b)" fill="#9A7143" d="M45.7 197.1l71.2-35.7-.3-.5.5-.3-35.7-71.2-.5.3-.3-.5-71.1 35.6.3.5-.5.3L45 196.8l.5-.3.2.6zM66.5 151l3 6-6 3-3-6 6-3zm-6.6 2l-3-6 6-3 3 6-6 3zm7.6-2.5l6-3 3 6-6 3-3-6zm-.5-1.1l-3-6 6-3 3 6-6 3zm-3.6-7.1l-3-6 6-3 3 6-6 3zm7.7-2.5l6-3 3 6-6 3-3-6zm-.6-1.1l-3-6 6-3 3 6-6 3zm-3.5-7.1l-3-6 6-3 3 6-6 3zm-1.1.6l-6 3-3-6 6-3 3 6zm-7.1 3.5l-6 3-3-6 6-3 3 6zm.5 1.1l3 6-6 3-3-6 6-3zm-4.1 9.6l-6 3-3-6 6-3 3 6zm.6 1.1l3 6-6 3-3-6 6-3zm3.5 7.1l3 6-6 3-3-6 6-3zm3.6 7.1l3 6-6 3-3-6 6-3zm1.1-.5l6-3 3 6-6 3-3-6zm7.1-3.6l6-3 3 6-6 3-3-6zm7.1-3.6l6-3 3 6-6 3-3-6zm-.5-1l-3-6 6-3 3 6-6 3zm4-9.6l6-3 3 6-6 3-3-6zm-.5-1.1l-3-6 6-3 3 6-6 3zm-3.6-7.1l-3-6 6-3 3 6-6 3zm-3.5-7.1l-3-6 6-3 3 6-6 3zm-3.6-7.1l-3-6 6-3 3 6-6 3zm-1.1.5l-6 3-3-6 6-3 3 6zm-7.1 3.6l-6 3-3-6 6-3 3 6zm-7.1 3.5l-6 3-3-6 6-3 3 6zm-7.1 3.6l-6 3-3-6 6-3 3 6zm.5 1l3 6-6 3-3-6 6-3zm-4 9.7l-6 3-3-6 6-3 3 6zm.5 1l3 6-6 3-3-6 6-3zm3.6 7.1l3 6-6 3-3-6 6-3zm3.5 7.2l3 6-6 3-3-6 6-3zm3.6 7.1l3 6-6 3-3-6 6-3zm3.6 7.1l3 6-6 3-3-6 6-3zm1-.5l6-3 3 6-6 3-3-6zm7.1-3.6l6-3 3 6-6 3-3-6zm7.1-3.6l6-3 3 6-6 3-3-6zm7.2-3.5l6-3 3 6-6 3-3-6zm7.1-3.6l6-3 3 6-6 3-3-6zm-.6-1.1l-3-6 6-3 3 6-6 3zm4.1-9.6l6-3 3 6-6 3-3-6zm-.5-1.1l-3-6 6-3 3 6-6 3zm-3.6-7.1l-3-6 6-3 3 6-6 3zm-3.5-7.1l-3-6 6-3 3 6-6 3zm-3.6-7.1l-3-6 6-3 3 6-6 3zm-3.6-7.1l-3-6 6-3 3 6-6 3zm-3.5-7.1l-3-6 6-3 3 6-6 3zm-1.1.5l-6 3-3-6 6-3 3 6zm-7.1 3.6l-6 3-3-6 6-3 3 6zm-7.1 3.5l-6 3-3-6 6-3 3 6zm-7.1 3.6l-6 3-3-6 6-3 3 6zm-7.2 3.6l-6 3-3-6 6-3 3 6zm-7.1 3.5l-6 3-3-6 6-3 3 6zm.6 1.1l3 6-6 3-3-6 6-3zm-4.1 9.6l-6 3-3-6 6-3 3 6zm.5 1.1l3 6-6 3-3-6 6-3zm3.6 7.1l3 6-6 3-3-6 6-3zm3.5 7.1l3 6-6 3-3-6 6-3zm3.6 7.1l3 6-6 3-3-6 6-3zm3.6 7.1l3 6-6 3-3-6 6-3zm3.5 7.2l3 6-6 3-3-6 6-3zm3.6 7.1l3 6-6 3-3-6 6-3zm1.1-.6l6-3 3 6-6 3-3-6zM64 179l6-3 3 6-6 3-3-6zm7.1-3.6l6-3 3 6-6 3-3-6zm7.1-3.6l6-3 3 6-6 3-3-6zm7.1-3.5l6-3 3 6-6 3-3-6zm7.1-3.6l6-3 3 6-6 3-3-6zm7.2-3.6l6-3 3 6-6 3-3-6zm-.6-1l-3-6 6-3 3 6-6 3zm4.1-9.6l6-3 3 6-6 3-3-6zm-.5-1.1l-3-6 6-3 3 6-6 3zm-3.6-7.1l-3-6 6-3 3 6-6 3zm-3.6-7.1l-3-6 6-3 3 6-6 3zm-3.5-7.2l-3-6 6-3 3 6-6 3zm-3.6-7.1l-3-6 6-3 3 6-6 3zm-3.6-7.1l-3-6 6-3 3 6-6 3zm-3.5-7.1l-3-6 6-3 3 6-6 3zm-3.6-7.1l-3-6 6-3 3 6-6 3zm-1.1.5l-6 3-3-6 6-3 3 6zm-7.1 3.6l-6 3-3-6 6-3 3 6zm-7.1 3.6l-6 3-3-6 6-3 3 6zm-7.1 3.5l-6 3-3-6 6-3 3 6zm-7.1 3.6l-6 3-3-6 6-3 3 6zM41 118l-6 3-3-6 6-3 3 6zm-7.1 3.5l-6 3-3-6 6-3 3 6zm-7.2 3.6l-6 3-3-6 6-3 3 6zm.6 1.1l3 6-6 3-3-6 6-3zm-4.1 9.6l-6 3-3-6 6-3 3 6zm.5 1l3 6-6 3-3-6 6-3zm3.6 7.1l3 6-6 3-3-6 6-3zm3.6 7.2l3 6-6 3-3-6 6-3zm3.5 7.1l3 6-6 3-3-6 6-3zm3.6 7.1l3 6-6 3-3-6 6-3zm3.6 7.1l3 6-6 3-3-6 6-3zm3.5 7.1l3 6-6 3-3-6 6-3zm3.6 7.1l3 6-6 3-3-6 6-3zm61-23l-3-6 6-3 3 6-6 3zm-93.1-41l3 6-6 3-3-6 6-3z" />
    </g>
    <path fill="#45404B" d="M30.983 136.343s1.377-4.091 2.575-3.932c1.251.074 1.484 1.399 2.195 3.847l1.664-.021s.455-3.371 1.727-3.52c1.05-.17 1.527.954 2.333 2.873l1.738-.329s.053-2.915 1.134-2.947c.636-.074 1.23.297 2.173 2.184l1.95-.668s.01-2.47.806-2.799c.795-.329 1.494-.127 2.523.87l.159-.255-4.071-6.317-7.23 1.378-6.486 1.135-1.834.859-1.356 7.642z" />
    <path fill="#545A63" d="M39.737 121.768l7.759-1.284 1.433 18.465z" />
    <path fill="#545A63" d="M35.762 122.468l7.26-1.241.3 18.582z" />
    <path fill="#545A63" d="M42.8 121.206l5.11-.817 4.983 12.783zm-10.324 1.803l6.71-1.114-2.405 19.133z" />
    <path fill="#545A63" d="M30.42 121.016l5.755 1.356-6.188 16.887z" />
    <path fill="#9A7143" d="M54.693.46C33.513-.746 29.89 18.45 26.416 44.58 24.351 60.15 8.525 58.87 7.446 78.714c-1.45 25.153 16.402 46.214 41.47 47.61 27.296 1.61 46.438-18.267 47.665-43.442.613-15.89-7.258-80.475-41.888-82.422z" />
    <path fill="#45404B" d="M82.042 128.982s-3.138-2.904-4.145-2.236-.635 1.961-.063 4.441l-1.505.71s-1.94-2.744-3.201-2.235c-.933.36-.87 1.579-.753 3.657l-1.76.55s-1.43-2.426-2.363-2.066c-.604.212-.89.859-.859 2.883l-2.098.34s-1.23-2.184-2.089-2.13c-.858.053-1.314.593-1.801 1.94l-.308-.075.582-7.536 7.007-2.344 6.264-2.099 1.993-.17 5.1 6.37z" />
    <path fill="#545A63" d="M67.498 120.366l-7.473 2.523 7.517 16.843z" />
    <path fill="#545A63" d="M71.314 118.977l-6.922 2.396 8.535 16.535z" />
    <path fill="#545A63" d="M64.445 121.288l-4.833 1.697 1.76 13.6zm9.975-3.318l-6.402 2.13L79.19 135.81z" />
    <path fill="#545A63" d="M76.232 117.333l-5.384 1.824 13.505 11.977z" />
    <g transform="rotate(32 135.155 45.22)">
      <circle fill="#FFF" cx="49.3" cy="76.8" r="4.4" />
      <path fill="#010101" d="M48.9 75.3c.2.7-.2 1.5-1 1.7-.5.1-1.1 0-1.4-.4 0 .3 0 .6.1.9.4 1.5 1.9 2.4 3.4 2 1.5-.4 2.4-1.9 2-3.4s-1.9-2.4-3.4-2c-.2.1-.4.1-.6.3.4.1.8.5.9.9z" />
    </g>
    <g transform="rotate(32 135.155 45.22)">
      <circle fill="#FFF" cx="68.2" cy="60.5" r="4.4" />
      <path fill="#010101" d="M67.8 59.1c.2.7-.2 1.5-1 1.7-.5.1-1.1 0-1.4-.4 0 .3 0 .6.1.9.4 1.5 1.9 2.4 3.4 2 1.5-.4 2.4-1.9 2-3.4-.4-1.5-1.9-2.4-3.4-2-.2.1-.4.1-.6.3.4 0 .8.4.9.9z" />
    </g>
    <g transform="rotate(32 135.155 45.22)">
      <path fill="#45404B" d="M62.7 143.7s-3-3-2.4-4c.6-1.1 1.9-.8 4.4-.2l.7-1.5s-2.8-1.9-2.4-3.1c.3-1 1.5-.9 3.6-.8l.5-1.8s-2.5-1.3-2.2-2.3c.2-.6.8-.9 2.9-1l.3-2.1s-2.2-1.1-2.2-2c0-.9.6-1.4 1.9-1.9l-.1-.3-7.5.9-2 7.1-1.9 6.3-.1 2 6.5 4.7z" />
      <path fill="#545A63" d="M53.5 129.5l2.3-7.6 17.2 6.9z" />
      <path fill="#545A63" d="M52.4 133.3l2.1-7 16.8 7.9z" />
      <path fill="#545A63" d="M54.4 126.4l1.5-4.9 13.7 1.2zm-3 10.1l2-6.5 16 10.6z" />
      <path fill="#545A63" d="M50.9 138.3l1.6-5.4 12.5 13z" />
      <ellipse transform="rotate(109.584 50.575 128.657)" fill="#9A7143" cx="50.6" cy="128.7" rx="13.4" ry="5.9" />
    </g>
    <g>
      <path fill="#45404B" d="M69.987 100.342s3.307-2.65 2.915-3.72c-.477-1.124-1.834-1.029-4.378-.732l-.435-1.568s2.979-1.559 2.745-2.884c-.17-1.05-1.42-1.123-3.476-1.23l-.276-1.822s2.66-1.05 2.438-2.014c-.16-.69-.753-1.06-2.757-1.251l.021-2.11s2.332-.9 2.364-1.706c.085-.89-.403-1.431-1.643-2.088l.159-.255 7.293 1.727 1.24 7.261 1.135 6.487-.19 2.004-7.155 3.901z" />
      <path fill="#545A63" d="M80.756 87.26l-1.422-7.726-17.892 4.856z" />
      <path fill="#545A63" d="M81.456 91.236l-1.294-7.176-17.638 5.959z" />
      <path fill="#545A63" d="M80.194 84.198l-.955-5.078-13.663-.401zm1.802 10.324l-1.166-6.625-17.171 8.609z" />
      <path fill="#545A63" d="M82.357 96.398l-.997-5.576-13.81 11.535z" />
      <path fill="#9A7143" d="M88.993 99.365c-4.41 1.018-9.275-4.027-10.93-11.192-1.654-7.166.508-13.833 4.917-14.851 4.41-1.018 3.36 2.925 5.015 10.09 1.601 7.25 5.27 14.967.998 15.953z" />
    </g>
    <g>
      <path fill="#5B5557" d="M74.222 44.501c2.31-.678 2.618-2.491 2.406-4.982-.393-2.957-3.287-4.176-6.064-5.204-1.124-.466-7.155-4.59-11.417-4.186-4.144.594-8.977 6.064-10.037 6.817-2.364 1.707-4.971 3.615-4.579 6.572.297 2.544 1.093 4.102 3.456 4.282 1.42.18 1.442.901 1.495 1.76.106.773 2.905 10.07 2.715 12.073-.435 1.261-1.632 2.99-1.42 4.537.318 2.321 2.152 3.35 4.473 3.03.997-.084 4.6-1.134 8.279-1.547s7.399-.33 8.448-.5c2.321-.318 3.89-1.696 3.572-4.017-.212-1.548-1.781-3-2.481-4.145-.721-1.865-.118-11.511-.309-12.338s.202-1.643 1.463-2.152z" />
      <g fill="#2D3130" transform="rotate(32 135.155 45.22)">
        <circle cx="80.6" cy="101.4" r="1.2" />
        <circle cx="87.1" cy="96.1" r="1.2" />
      </g>
    </g>
  </g>
</svg>