<?xml version="1.0" standalone="no"?>
<!DOCTYPE svg PUBLIC "-//W3C//DTD SVG 20010904//EN"
 "http://www.w3.org/TR/2001/REC-SVG-20010904/DTD/svg10.dtd">
<svg version="1.0" xmlns="http://www.w3.org/2000/svg"
 width="2472.000000pt" height="2472.000000pt" viewBox="0 0 2472.000000 2472.000000"
 preserveAspectRatio="xMidYMid meet">
<metadata>
Created by potrace 1.14, written by Peter Selinger 2001-2017
</metadata>
<g transform="translate(0.000000,2472.000000) scale(0.100000,-0.100000)"
fill="#000000" stroke="none">
<path d="M13265 24639 c-758 -60 -1361 -284 -1886 -700 -139 -110 -400 -374
-528 -534 -573 -717 -984 -1748 -1315 -3295 -141 -662 -278 -1496 -446 -2715
-33 -242 -70 -493 -81 -558 -103 -611 -339 -1116 -758 -1621 l-104 -125 -36
15 c-369 157 -825 267 -1261 304 -161 14 -543 14 -690 0 -851 -79 -1611 -385
-2277 -916 -116 -92 -417 -391 -524 -519 -303 -364 -518 -724 -683 -1141 -161
-410 -250 -790 -287 -1229 -13 -157 -12 -519 1 -670 72 -817 361 -1566 849
-2198 65 -83 103 -119 261 -245 102 -80 523 -414 935 -741 413 -327 892 -707
1065 -845 173 -137 486 -385 695 -551 563 -446 1632 -1294 1776 -1409 69 -56
193 -162 275 -237 397 -362 744 -619 1229 -908 88 -53 181 -107 206 -120 l47
-25 -5 -120 c-2 -67 -17 -701 -33 -1411 -16 -710 -32 -1362 -35 -1450 -3 -107
-2 -155 5 -144 5 9 71 185 145 390 142 391 213 550 295 662 64 87 116 121 180
120 100 -1 181 -78 238 -222 16 -42 94 -348 173 -679 79 -331 145 -599 146
-594 2 4 25 189 53 412 28 223 54 416 59 430 5 14 12 47 16 74 24 180 117 409
194 479 123 111 255 48 369 -178 25 -50 374 -843 426 -969 9 -22 18 -37 19
-35 2 2 0 200 -5 439 -8 439 -5 502 28 646 20 88 49 148 89 183 30 26 44 31
86 31 79 0 136 -36 205 -130 69 -93 95 -139 360 -632 114 -213 209 -386 211
-384 2 1 -13 205 -33 452 -39 497 -40 626 -5 751 39 134 85 181 190 190 138
13 280 -84 476 -324 32 -40 60 -71 61 -70 2 1 -100 266 -225 587 l-228 585
381 6 c456 8 804 35 1196 94 52 8 96 12 99 9 2 -2 59 -426 126 -942 67 -515
124 -928 128 -917 3 11 27 126 52 255 28 142 54 247 66 266 32 53 126 104 192
104 80 0 185 -94 302 -269 37 -56 72 -101 79 -101 6 0 92 -183 191 -406 l180
-405 5 618 5 618 23 47 c13 27 38 56 56 68 37 22 105 27 139 8 75 -39 170
-138 263 -273 33 -47 55 -69 65 -67 13 2 61 -83 200 -352 100 -196 184 -354
186 -353 1 2 -20 264 -48 582 -30 349 -48 605 -45 644 15 177 149 258 302 181
79 -40 194 -140 278 -242 38 -45 81 -94 97 -108 15 -14 136 -178 269 -365 134
-187 240 -331 237 -320 -3 11 -79 292 -168 625 -156 582 -162 609 -161 700 0
104 11 144 57 198 63 75 128 77 264 12 139 -67 247 -151 576 -443 176 -157
321 -284 323 -282 3 2 -1106 1895 -1219 2082 l-20 31 68 48 c727 507 1400
1189 1898 1922 611 901 1022 1894 1244 3009 78 388 122 729 152 1173 15 224 6
1007 -15 1325 -108 1613 -336 3117 -717 4740 -529 2251 -1303 4176 -2242 5580
-425 634 -940 1218 -1447 1641 -816 680 -1747 1068 -2753 1149 -199 16 -608
18 -782 4z m3491 -3110 c461 -64 759 -525 628 -970 -39 -132 -141 -284 -248
-371 -141 -113 -301 -170 -481 -170 -180 0 -340 57 -481 170 -271 219 -355
611 -199 924 91 181 235 309 425 378 124 46 227 57 356 39z m-4220 -674 c266
-60 480 -260 564 -530 74 -239 5 -533 -172 -727 -222 -244 -598 -314 -891
-167 -279 141 -441 417 -424 724 10 194 81 349 222 490 102 103 184 154 300
191 142 44 261 50 401 19z"/>
<path d="M16680 21237 c0 -3 11 -23 25 -43 48 -70 28 -199 -41 -268 -71 -69
-186 -91 -269 -51 -59 29 -121 95 -132 141 l-9 39 -22 -35 c-69 -110 -91 -274
-54 -397 26 -83 83 -175 143 -227 57 -50 168 -103 244 -117 201 -37 421 73
513 257 43 86 55 152 50 260 -4 80 -10 103 -41 169 -70 146 -210 255 -350 271
-31 4 -57 4 -57 1z"/>
<path d="M12400 20589 c0 -2 11 -26 25 -53 78 -153 -32 -326 -207 -326 -95 0
-183 56 -223 142 -24 52 -28 51 -60 -11 -49 -97 -66 -230 -41 -334 21 -87 53
-151 111 -215 64 -71 118 -106 211 -138 70 -23 90 -26 179 -22 117 6 182 27
265 89 107 81 169 187 191 325 30 201 -77 411 -256 500 -49 24 -92 37 -134 41
-33 3 -61 4 -61 2z"/>
</g>
</svg>
